PathFileType	4	(X/Y/Z)	CPRIT_Patient3_R_AnkleIso_Processed.TRC
DataRate	CameraRate	NumFrames	NumMarkers	Units	OrigDataRate	OrigDataStartFrame	OrigNumFrames
150.227617602428	150.227617602428	6	39	m	150.227617602428	1	       661
Frame#	Time	R.Heel			R.Midfoot.Superior			R.Midfoot.Lateral			R.Toe			L.Heel			L.Midfoot.Superior			L.Midfoot.Lateral			L.Toe			R.Shank.Superior			R.Shank.Inferior			R.Shank.Lateral			R.Shank.Posterior			L.Shank.Superior			L.Shank.Inferior			L.Shank.Posterior			L.Shank.Lateral			R.Patella			L.Patella			R.Thigh.Superior			R.Thigh.Lateral			R.Thigh.Inferior			L.Thigh.Superior			L.Thigh.Inferior			L.Thigh.Lateral			L.Asis			R.Asis			Sacral			R.Shoulder			L.Shoulder			C7			J.Notch			Sternum			Thoracic			L.Elbow			L.Wrist			R.Elbow			R.Wrist			R.PSIS			L.PSIS			
		X1	Y1	Z1	X2	Y2	Z2	X3	Y3	Z3	X4	Y4	Z4	X5	Y5	Z5	X6	Y6	Z6	X7	Y7	Z7	X8	Y8	Z8	X9	Y9	Z9	X10	Y10	Z10	X11	Y11	Z11	X12	Y12	Z12	X13	Y13	Z13	X14	Y14	Z14	X15	Y15	Z15	X16	Y16	Z16	X17	Y17	Z17	X18	Y18	Z18	X19	Y19	Z19	X20	Y20	Z20	X21	Y21	Z21	X22	Y22	Z22	X23	Y23	Z23	X24	Y24	Z24	X25	Y25	Z25	X26	Y26	Z26	X27	Y27	Z27	X28	Y28	Z28	X29	Y29	Z29	X30	Y30	Z30	X31	Y31	Z31	X32	Y32	Z32	X33	Y33	Z33	X34	Y34	Z34	X35	Y35	Z35	X36	Y36	Z36	X37	Y37	Z37	X38	Y38	Z38	X39	Y39	Z39	

1	0.000000000000	1.001003039001	0.058215380031	0.167012151120	1.100794205904	0.205148671513	0.158989955429	1.073522573409	0.102253236887	0.212657431829	1.216180516036	0.246778328107	0.153662791536	0.643920473325	0.042741270405	-0.093859949073	0.806590765086	0.095568630979	-0.144324434701	0.709490334907	0.032669922333	-0.166039937516	0.920249431349	0.056529802579	-0.173639018437	0.994819898764	0.422228968433	0.140552525162	1.022395077493	0.304720174057	0.157139196943	0.940329808575	0.344594853191	0.207219008443	0.864069843854	0.372280884725	0.141098832037	0.772336729896	0.362893761895	-0.168053803585	0.759290988437	0.235697275222	-0.151615962679	0.633566325022	0.344973899660	-0.151857627879	0.697565089317	0.278046903270	-0.205281495571	0.972658684892	0.543829138461	0.101951249125	0.802730968312	0.465555788028	-0.167227044185	0.880102748675	0.832540687435	0.087234569273	0.831427929266	0.748350711912	0.142985964905	0.935360763456	0.689001601292	0.068575539710	0.861316035184	0.776717801688	-0.182846200347	0.844308088214	0.612237854959	-0.169068962025	0.763086317586	0.705075919806	-0.242253001755	0.854301678425	0.937477683885	-0.177415729909	0.818326192829	0.947655593677	0.064205475888	0.648556872515	0.982750875620	-0.072739335162	0.765619492175	1.439062429016	0.093780790451	0.807962032691	1.454243553078	-0.215993752937	0.741623276809	1.475077515004	-0.061073275933	0.847288875164	1.364500762395	-0.055580696842	0.891397361620	1.185344588997	-0.061042608792	0.641165363405	1.322498220426	-0.079917386291	0.849731480598	1.171977063367	-0.380850107908	1.008432555652	0.988417913726	-0.443721979242	0.765766990220	1.165063129112	0.277188786749	0.906469377835	0.991570599492	0.405338139618	0.645034214372	0.983158983327	-0.035827403491	0.652477204691	0.984074680559	-0.110158435006	
2	0.006656565657	1.000810029717	0.058223836923	0.167156115427	1.100751454545	0.204972778980	0.158465400932	1.073689841346	0.102112888970	0.212292423501	1.216123744400	0.246436758734	0.152287208019	0.643923379068	0.042740856183	-0.093857560032	0.806578847439	0.095563471613	-0.144325631788	0.709489780189	0.032669808610	-0.166040931510	0.920253093979	0.056535823622	-0.173632628817	0.994708317338	0.422171223083	0.140430361567	1.022307067448	0.304652893584	0.157006349670	0.940274700307	0.344560932376	0.207163367353	0.863886848561	0.372199387899	0.141049509200	0.772296591700	0.362901456840	-0.168028991961	0.759263394742	0.235714250979	-0.151608107508	0.633531258123	0.344963774568	-0.151837772519	0.697532996746	0.278047595746	-0.205267508255	0.972536732050	0.543771360641	0.101849023715	0.802680047625	0.465559495416	-0.167190930233	0.880057294777	0.832521332479	0.087261342429	0.831400791871	0.748329703484	0.142993760712	0.935285053213	0.688955483980	0.068527600803	0.861282738350	0.776711650187	-0.182796212620	0.844264343508	0.612232023750	-0.169027509032	0.763051128038	0.705078085494	-0.242211583370	0.854277655919	0.937471902587	-0.177359206562	0.818311874495	0.947650592766	0.064268212943	0.648518685148	0.982767398667	-0.072688132532	0.765669444200	1.439083730679	0.093790948609	0.807969236661	1.454253510861	-0.215991564080	0.741640064919	1.475094839235	-0.061046412634	0.847307195024	1.364511893069	-0.055581089483	0.891418916490	1.185369659092	-0.061018073699	0.641174421032	1.322514065870	-0.079884048696	0.849721738490	1.171973963543	-0.380843995410	1.008430124847	0.988410852373	-0.443715526511	0.765795449662	1.165086403877	0.277207287268	0.906473416911	0.991577219779	0.405346832945	0.644998481649	0.983177546435	-0.035778850743	0.652441647523	0.984096579535	-0.110110770624	
3	0.013313131313	1.000616211169	0.058234526884	0.167302259424	1.100710550736	0.204794434232	0.157929258655	1.073862253025	0.101971406085	0.211920399313	1.216068198069	0.246087432215	0.150880575206	0.643926160439	0.042740597194	-0.093855360828	0.806566742543	0.095558508653	-0.144327803333	0.709489239987	0.032669652133	-0.166041945852	0.920256507636	0.056542034637	-0.173626281041	0.994595922983	0.422113430083	0.140303446193	1.022219699878	0.304586292097	0.156869564211	0.940221388856	0.344527553553	0.207106206363	0.863704802156	0.372119348475	0.141002150501	0.772255003645	0.362909773574	-0.168004329275	0.759234715423	0.235731355092	-0.151600685514	0.633494897316	0.344953698474	-0.151817761216	0.697500135368	0.278048260772	-0.205253207074	0.972413976310	0.543713780969	0.101743645396	0.802627504284	0.465563175468	-0.167154339948	0.880011317257	0.832502132830	0.087286347651	0.831374507935	0.748309596584	0.143001603140	0.935208110213	0.688909476805	0.068476323344	0.861248063070	0.776705158579	-0.182745301106	0.844218684612	0.612225811394	-0.168985764636	0.763014130792	0.705080366748	-0.242169272718	0.854252813780	0.937465740237	-0.177300999247	0.818297206642	0.947645811668	0.064332098478	0.648479278080	0.982784843822	-0.072635490717	0.765719830937	1.439105519095	0.093801629595	0.807977302580	1.454263939326	-0.215988839998	0.741657994138	1.475112597247	-0.061019887862	0.847326308486	1.364523259573	-0.055580768783	0.891441195480	1.185394983027	-0.060991953879	0.641183867693	1.322530500925	-0.079850144597	0.849712701780	1.171970971032	-0.380837535893	1.008427893555	0.988404221957	-0.443709230334	0.765823451336	1.165110080756	0.277226393603	0.906477339554	0.991584057281	0.405355445394	0.644961613022	0.983197216771	-0.035728686722	0.652405073851	0.984119071414	-0.110061534631	
4	0.019969696970	1.000423605025	0.058247810421	0.167449562781	1.100672508748	0.204614879371	0.157384587758	1.074039194269	0.101829995599	0.211543793791	1.216014761152	0.245732355919	0.149451492608	0.643928772659	0.042740463367	-0.093853349537	0.806554745808	0.095553820411	-0.144330670549	0.709488713299	0.032669451556	-0.166042954152	0.920259643170	0.056548283901	-0.173620093106	0.994483840086	0.422056186769	0.140172193890	1.022134181299	0.304521126016	0.156729369304	0.940171028523	0.344495146242	0.207047855599	0.863526001968	0.372041885518	0.140958008319	0.772212200983	0.362918633364	-0.167979815650	0.759205153292	0.235748321756	-0.151593625356	0.633457405587	0.344943683854	-0.151797690680	0.697466720001	0.278048926710	-0.205238645268	0.972291533566	0.543656935779	0.101635562860	0.802573647657	0.465566810205	-0.167117397959	0.879965196795	0.832483178864	0.087309402108	0.831349317891	0.748290525527	0.143009578407	0.935130460935	0.688863971220	0.068421898637	0.861212111448	0.776698341446	-0.182693734282	0.844171250759	0.612219235671	-0.168944006098	0.762975377515	0.705082772451	-0.242126242311	0.854227238352	0.937459213623	-0.177241344383	0.818282266844	0.947641259960	0.064396769196	0.648438751967	0.982803115196	-0.072581567410	0.765770272890	1.439127576968	0.093812823878	0.807986315885	1.454274625705	-0.215985452744	0.741677149017	1.475130583154	-0.060994058612	0.847346201956	1.364534729940	-0.055579611277	0.891464091306	1.185420327211	-0.060964316354	0.641193600707	1.322547504845	-0.079816026853	0.849704629843	1.171968203520	-0.380830687611	1.008425922933	0.988398063965	-0.443703161603	0.765850694737	1.165133864122	0.277246058373	0.906481116100	0.991590901765	0.405363825938	0.644923717385	0.983217911745	-0.035677043089	0.652367559059	0.984141964561	-0.110010861542	
5	0.026626262626	1.000234133333	0.058264036001	0.167596943192	1.100638276625	0.204435321916	0.156834337227	1.074220047141	0.101689787298	0.211164864267	1.215964256999	0.245373490682	0.148008376701	0.643931176777	0.042740425395	-0.093851522404	0.806543125534	0.095549479745	-0.144333988605	0.709488199153	0.032669207726	-0.166043931712	0.920262477030	0.056554433862	-0.173614171432	0.994373168598	0.422000075138	0.140037033452	1.022051651125	0.304458105721	0.156586264214	0.940124684512	0.344464098902	0.206988578251	0.863352605352	0.371968036079	0.140918135303	0.772168431358	0.362927960136	-0.167955434909	0.759174917088	0.235764910206	-0.151586848081	0.633418960287	0.344933746947	-0.151777613392	0.697432960832	0.278049627438	-0.205223852525	0.972170488923	0.543601348486	0.101525203024	0.802518795738	0.465570392368	-0.167080211105	0.879919299130	0.832464560125	0.087330392161	0.831325422102	0.748272558810	0.143017797440	0.935052627540	0.688819351822	0.068364580698	0.861174979150	0.776691237293	-0.182641762629	0.844122193880	0.612212336996	-0.168902487806	0.762934906911	0.705085318500	-0.242082631100	0.854200994534	0.937452363047	-0.177180462077	0.818267129283	0.947636969078	0.064461899324	0.648397193468	0.982822113858	-0.072526494399	0.765820417982	1.439149710028	0.093824532761	0.807996364808	1.454285384291	-0.215981273935	0.741697612735	1.475148618583	-0.060969236588	0.847366852665	1.364546187654	-0.055577499251	0.891487498721	1.185445494527	-0.060935227856	0.641203525731	1.322565069143	-0.079782008232	0.849697763601	1.171965770528	-0.380823394909	1.008424259405	0.988392416450	-0.443697370993	0.765876909210	1.165157491348	0.277266245783	0.906484719538	0.991597558191	0.405371840920	0.644884891027	0.983239542417	-0.035624032966	0.652329159398	0.984165066829	-0.109958863153	
6	0.033282828283	1.000049566329	0.058283525237	0.167743257862	1.100608698880	0.204256916564	0.156281307597	1.074404182836	0.101551805487	0.210785640635	1.215917419380	0.245012728157	0.146559353733	0.643933341120	0.042740456400	-0.093849874596	0.806532111279	0.095545553451	-0.144337560627	0.709487696838	0.032668923821	-0.166044856588	0.920264991677	0.056560367518	-0.173608606025	0.994264961186	0.421945648882	0.139898411146	1.021973145774	0.304397876091	0.156440715039	0.940083292360	0.344434745313	0.206928558021	0.863186560161	0.371898719182	0.140883318301	0.772123954495	0.362937683361	-0.167931158500	0.759144219338	0.235780914086	-0.151580270589	0.633379755082	0.344923910746	-0.151757531659	0.697399061747	0.278050401971	-0.205208831623	0.972051875329	0.543547519625	0.101412966086	0.802463273858	0.465573926927	-0.167042868135	0.879873967133	0.832446365582	0.087349283294	0.831302973099	0.748255689341	0.143026395394	0.934975121571	0.688775989751	0.068304690925	0.861136757171	0.776683912313	-0.182589614208	0.844071683031	0.612205181593	-0.168861434594	0.762892747823	0.705088028384	-0.242038540032	0.854174124747	0.937445255716	-0.177118553604	0.818251863768	0.947632997395	0.064527208577	0.648354676851	0.982841739239	-0.072470376351	0.765869950711	1.439171754524	0.093836768807	0.808007537430	1.454296067722	-0.215976178552	0.741719461600	1.475166562917	-0.060945672740	0.847388226118	1.364557537627	-0.055574323986	0.891511315408	1.185470333946	-0.060904755036	0.641213561085	1.322583197774	-0.079748346495	0.849692316452	1.171963767926	-0.380815587353	1.008422930562	0.988387315629	-0.443691885803	0.765901862675	1.165180744365	0.277286931957	0.906488125969	0.991603856831	0.405379380657	0.644845217571	0.983262013657	-0.035569750360	0.652289913599	0.984188188936	-0.109905627500	
